<mxfile host="app.diagrams.net" modified="2023-02-21T09:37:19.157Z" agent="5.0 (Windows NT 10.0; Win64; x64) AppleWebKit/537.36 (KHTML, like Gecko) Chrome/109.0.0.0 Safari/537.36" etag="yRs6SFqVix4n9VKYP7mn" version="20.8.20" type="github">
  <diagram name="Page-1" id="e56a1550-8fbb-45ad-956c-1786394a9013">
    <mxGraphModel dx="734" dy="386" grid="1" gridSize="10" guides="1" tooltips="1" connect="1" arrows="1" fold="1" page="1" pageScale="1" pageWidth="1100" pageHeight="850" background="none" math="0" shadow="0">
      <root>
        <mxCell id="0" />
        <mxCell id="1" parent="0" />
        <mxCell id="GoWU7eIKlZ8s-eaZHImy-2" value="Usuario" style="swimlane;fontStyle=1;align=center;verticalAlign=top;childLayout=stackLayout;horizontal=1;startSize=26;horizontalStack=0;resizeParent=1;resizeParentMax=0;resizeLast=0;collapsible=1;marginBottom=0;" vertex="1" parent="1">
          <mxGeometry x="410" y="320" width="160" height="86" as="geometry" />
        </mxCell>
        <mxCell id="GoWU7eIKlZ8s-eaZHImy-3" value="+ id: int&#xa;" style="text;strokeColor=none;fillColor=none;align=left;verticalAlign=top;spacingLeft=4;spacingRight=4;overflow=hidden;rotatable=0;points=[[0,0.5],[1,0.5]];portConstraint=eastwest;" vertex="1" parent="GoWU7eIKlZ8s-eaZHImy-2">
          <mxGeometry y="26" width="160" height="26" as="geometry" />
        </mxCell>
        <mxCell id="GoWU7eIKlZ8s-eaZHImy-4" value="" style="line;strokeWidth=1;fillColor=none;align=left;verticalAlign=middle;spacingTop=-1;spacingLeft=3;spacingRight=3;rotatable=0;labelPosition=right;points=[];portConstraint=eastwest;strokeColor=inherit;" vertex="1" parent="GoWU7eIKlZ8s-eaZHImy-2">
          <mxGeometry y="52" width="160" height="8" as="geometry" />
        </mxCell>
        <mxCell id="GoWU7eIKlZ8s-eaZHImy-5" value="+ method(type): type" style="text;strokeColor=none;fillColor=none;align=left;verticalAlign=top;spacingLeft=4;spacingRight=4;overflow=hidden;rotatable=0;points=[[0,0.5],[1,0.5]];portConstraint=eastwest;" vertex="1" parent="GoWU7eIKlZ8s-eaZHImy-2">
          <mxGeometry y="60" width="160" height="26" as="geometry" />
        </mxCell>
        <mxCell id="GoWU7eIKlZ8s-eaZHImy-11" value="Usuario" style="swimlane;whiteSpace=wrap;html=1;" vertex="1" parent="1">
          <mxGeometry x="180" y="350" width="200" height="360" as="geometry" />
        </mxCell>
        <mxCell id="GoWU7eIKlZ8s-eaZHImy-12" value="+ id: int&#xa;" style="text;strokeColor=default;fillColor=none;align=left;verticalAlign=top;spacingLeft=4;spacingRight=4;overflow=hidden;rotatable=0;points=[[0,0.5],[1,0.5]];portConstraint=eastwest;" vertex="1" parent="GoWU7eIKlZ8s-eaZHImy-11">
          <mxGeometry y="23" width="200" height="26" as="geometry" />
        </mxCell>
        <mxCell id="GoWU7eIKlZ8s-eaZHImy-13" value="+ email: String&#xa;" style="text;strokeColor=default;fillColor=none;align=left;verticalAlign=top;spacingLeft=4;spacingRight=4;overflow=hidden;rotatable=0;points=[[0,0.5],[1,0.5]];portConstraint=eastwest;" vertex="1" parent="GoWU7eIKlZ8s-eaZHImy-11">
          <mxGeometry y="49" width="200" height="26" as="geometry" />
        </mxCell>
        <mxCell id="GoWU7eIKlZ8s-eaZHImy-14" value="+ nombre: String&#xa;" style="text;strokeColor=default;fillColor=none;align=left;verticalAlign=top;spacingLeft=4;spacingRight=4;overflow=hidden;rotatable=0;points=[[0,0.5],[1,0.5]];portConstraint=eastwest;" vertex="1" parent="GoWU7eIKlZ8s-eaZHImy-11">
          <mxGeometry y="75" width="200" height="26" as="geometry" />
        </mxCell>
        <mxCell id="GoWU7eIKlZ8s-eaZHImy-15" value="+ fecha nacimiento: Date&#xa;" style="text;strokeColor=default;fillColor=none;align=left;verticalAlign=top;spacingLeft=4;spacingRight=4;overflow=hidden;rotatable=0;points=[[0,0.5],[1,0.5]];portConstraint=eastwest;" vertex="1" parent="GoWU7eIKlZ8s-eaZHImy-11">
          <mxGeometry y="101" width="200" height="26" as="geometry" />
        </mxCell>
        <mxCell id="GoWU7eIKlZ8s-eaZHImy-18" value="+ visitas: int&#xa;" style="text;strokeColor=default;fillColor=none;align=left;verticalAlign=top;spacingLeft=4;spacingRight=4;overflow=hidden;rotatable=0;points=[[0,0.5],[1,0.5]];portConstraint=eastwest;" vertex="1" parent="GoWU7eIKlZ8s-eaZHImy-11">
          <mxGeometry y="127" width="200" height="26" as="geometry" />
        </mxCell>
        <mxCell id="GoWU7eIKlZ8s-eaZHImy-19" value="+ avatar_id: int&#xa;" style="text;strokeColor=default;fillColor=none;align=left;verticalAlign=top;spacingLeft=4;spacingRight=4;overflow=hidden;rotatable=0;points=[[0,0.5],[1,0.5]];portConstraint=eastwest;" vertex="1" parent="GoWU7eIKlZ8s-eaZHImy-11">
          <mxGeometry y="153" width="200" height="26" as="geometry" />
        </mxCell>
        <mxCell id="GoWU7eIKlZ8s-eaZHImy-20" value="+ color_id: int&#xa;" style="text;strokeColor=default;fillColor=none;align=left;verticalAlign=top;spacingLeft=4;spacingRight=4;overflow=hidden;rotatable=0;points=[[0,0.5],[1,0.5]];portConstraint=eastwest;" vertex="1" parent="GoWU7eIKlZ8s-eaZHImy-11">
          <mxGeometry y="179" width="200" height="26" as="geometry" />
        </mxCell>
        <mxCell id="GoWU7eIKlZ8s-eaZHImy-21" value="+ lista_hijos: [ int ]&#xa;" style="text;strokeColor=default;fillColor=none;align=left;verticalAlign=top;spacingLeft=4;spacingRight=4;overflow=hidden;rotatable=0;points=[[0,0.5],[1,0.5]];portConstraint=eastwest;" vertex="1" parent="GoWU7eIKlZ8s-eaZHImy-11">
          <mxGeometry y="205" width="200" height="26" as="geometry" />
        </mxCell>
      </root>
    </mxGraphModel>
  </diagram>
</mxfile>
